<svg width="55" height="78" viewBox="0 0 55 78" fill="none" xmlns="http://www.w3.org/2000/svg">
<path d="M33.6429 27.1408L34.086 27.3019L34.2728 26.869L34.2728 26.8688L34.2733 26.8678L34.275 26.8637L34.2824 26.8467L34.3121 26.779C34.3383 26.7195 34.3771 26.632 34.4271 26.5208C34.5271 26.2985 34.6718 25.9821 34.8502 25.607C35.2074 24.8556 35.6967 23.8741 36.229 22.9436C36.7667 22.0037 37.3284 21.1517 37.8261 20.6341C38.0803 20.3696 38.2728 20.241 38.3955 20.1997C38.4221 20.1907 38.4404 20.1877 38.4513 20.1868C38.4617 20.1859 38.4661 20.1869 38.4668 20.1871C38.4673 20.1872 38.4695 20.1876 38.4748 20.1907C38.4805 20.1941 38.4926 20.2024 38.5101 20.2209L38.6142 20.3307L38.7618 20.3644C39.1975 20.4638 39.5542 20.5175 39.8452 20.5165C40.1361 20.5154 40.4192 20.4594 40.6483 20.28C40.8804 20.0983 40.9769 19.8527 41.0277 19.6536C41.0644 19.5096 41.0882 19.3377 41.1092 19.1867C41.1151 19.1442 41.1207 19.1032 41.1264 19.0651C41.1825 18.6872 41.2709 18.2772 41.5897 17.8357C41.9125 17.3885 42.5037 16.8662 43.6419 16.3449L43.9179 16.2185L43.9331 15.9153C43.9746 15.0882 43.9413 14.5441 43.8503 14.1568C43.7517 13.7366 43.588 13.5157 43.4343 13.3409C43.4215 13.3263 43.4096 13.3128 43.3984 13.3001C43.2992 13.1883 43.2593 13.1432 43.2192 13.0212C43.1657 12.8584 43.1172 12.547 43.1438 11.8975C43.1577 11.5576 43.1484 11.27 43.0928 11.0604C43.0671 10.9637 43.0106 10.7972 42.8631 10.6737C42.78 10.604 42.6738 10.5535 42.5517 10.5403C42.4343 10.5275 42.3327 10.5523 42.257 10.5835C42.1184 10.6404 42.0187 10.738 41.959 10.8037C41.8918 10.8779 41.8298 10.9638 41.7738 11.0501C41.6615 11.2232 41.5459 11.4409 41.4339 11.6724C41.0564 12.4523 40.6452 13.5445 40.4366 14.1126C39.8811 14.2377 39.5123 14.2833 39.2782 14.2776C39.2347 14.2766 39.2 14.2741 39.1728 14.2709C39.186 14.2149 39.2096 14.1411 39.2477 14.0459C39.3346 13.8286 39.4661 13.5725 39.6264 13.2601C39.6499 13.2144 39.674 13.1674 39.6987 13.1192C40.0669 12.3998 40.5386 11.4475 40.6285 10.4495C40.7228 9.40203 40.3952 8.32917 39.2513 7.4222C38.3867 6.73669 37.816 6.18102 37.4526 5.76432C37.3637 5.43578 37.2494 5.17292 37.131 4.97828C37.0658 4.87115 36.9915 4.7718 36.9089 4.69285C36.8681 4.65383 36.8139 4.60887 36.747 4.57214C36.6883 4.53996 36.5678 4.4852 36.4124 4.50096C36.2188 4.52061 36.0661 4.63961 35.9889 4.79382C35.9265 4.91842 35.9261 5.03721 35.9302 5.10065C35.939 5.23394 35.9863 5.36315 36.0345 5.46823C36.1276 5.67144 36.2904 5.92602 36.5355 6.22758C36.7669 7.34404 36.6981 9.58244 34.7597 13.1201C34.7351 13.165 34.7104 13.21 34.6856 13.2552C34.517 13.5626 34.3451 13.8761 34.1773 14.1926C34.1573 14.1563 34.1373 14.1202 34.1174 14.0842C34.1038 14.0594 34.0901 14.0347 34.0765 14.0101C33.8919 13.6759 33.7152 13.3544 33.5553 13.0432C33.2385 12.4262 33.0099 11.8899 32.9229 11.4315C32.8876 10.6672 32.8589 10.0073 32.8343 9.44328C32.7757 8.0969 32.7408 7.29657 32.6978 6.92483C32.6897 6.85486 32.68 6.78702 32.6673 6.72717L32.6668 6.72512C32.6587 6.6868 32.6345 6.57353 32.5638 6.47149C32.5262 6.41735 32.4157 6.28 32.2092 6.25072C31.9902 6.21965 31.8393 6.33306 31.7801 6.38921C31.7194 6.44673 31.6844 6.50707 31.6684 6.53642C31.6494 6.57139 31.6351 6.60507 31.6246 6.63185C31.5864 6.72962 31.5513 6.86398 31.5188 6.99739C31.4892 7.11917 31.4556 7.26664 31.4182 7.43062C31.4121 7.45744 31.4059 7.4847 31.3996 7.51236C31.2181 8.30784 30.9345 9.52109 30.4568 10.7633C29.9767 12.0115 29.3168 13.2451 28.4071 14.1071L28.3813 14.1315L28.3593 14.1594C27.669 15.03 27.1268 17.1759 29.29 19.4587C30.1881 20.4064 30.5516 21.5792 30.6314 22.6879C30.7117 23.802 30.5021 24.8167 30.2932 25.3913L30.1224 25.8612L30.5923 26.032L33.6429 27.1408ZM39.0844 14.251C39.0848 14.2508 39.0887 14.2521 39.0945 14.2558C39.0869 14.2532 39.0839 14.2513 39.0844 14.251ZM31.6864 6.92461C31.6865 6.92434 31.6875 6.92769 31.6892 6.93547C31.6872 6.92877 31.6863 6.92488 31.6864 6.92461ZM42.7103 11.4649C42.7103 11.465 42.709 11.4663 42.7064 11.4685C42.709 11.4659 42.7103 11.4648 42.7103 11.4649ZM42.1235 11.3083C42.1236 11.3081 42.1245 11.3105 42.1259 11.3158C42.1241 11.3111 42.1234 11.3085 42.1235 11.3083Z" fill="#A5B090" stroke="#73877B"/>
<path d="M20.6607 74.5442L20.4899 75.0141L20.9599 75.1849L24.7077 76.5472L24.8785 76.0772C24.7077 76.5472 24.7079 76.5472 24.7082 76.5473L24.7087 76.5475L24.7099 76.548L24.7131 76.5491L24.7219 76.5522L24.7493 76.5614C24.7563 76.5636 24.764 76.5661 24.7725 76.5688C24.7917 76.5748 24.8148 76.5818 24.8415 76.5894C24.9185 76.6113 25.0265 76.6387 25.1577 76.663C25.4179 76.7113 25.7821 76.7501 26.1838 76.7037C26.5876 76.6571 27.0395 76.5228 27.456 76.2165C27.8755 75.9079 28.2301 75.4459 28.4679 74.7917C28.6921 74.1749 28.7344 73.6123 28.3943 73.1901C28.2368 72.9946 28.0329 72.8792 27.847 72.805C27.6629 72.7314 27.4643 72.6858 27.2899 72.6501C27.2231 72.6364 27.1594 72.6238 27.0986 72.6118C26.8074 72.5544 26.5815 72.5099 26.3905 72.4152C26.2127 72.3271 26.0931 72.209 26.0534 71.9355C26.0473 71.8942 26.0465 71.7907 26.0737 71.6026C26.0995 71.4238 26.1457 71.1994 26.2121 70.9322C26.345 70.3982 26.5511 69.7228 26.8097 68.9518C27.3265 67.4114 28.0421 65.5214 28.7687 63.6817C29.4948 61.8433 30.2294 60.061 30.7827 58.7379C31.0592 58.0765 31.2904 57.5301 31.4523 57.1492C31.5333 56.9588 31.597 56.8097 31.6404 56.7083L31.6785 56.6195C32.4161 55.7306 33.1642 54.8381 33.9103 53.9479C36.5201 50.8342 39.1056 47.7494 41.1365 44.9508C42.4495 43.1415 43.5459 41.4318 44.2727 39.8924C44.9934 38.3663 45.385 36.9378 45.1943 35.718C44.8315 33.3969 43.2188 31.3795 41.0121 29.6888C38.7981 27.9925 35.9252 26.5769 32.9139 25.4706C29.6702 24.2789 26.2365 23.5186 23.2529 23.3869C20.3024 23.2566 17.6588 23.7356 16.1388 25.1759C15.2785 25.9912 14.7436 27.3573 14.3956 29.0049C14.0435 30.6714 13.8653 32.7161 13.7849 34.9791C13.6735 38.1147 13.7492 41.7222 13.8262 45.3884C13.8596 46.9809 13.8933 48.5844 13.9119 50.1652L13.8852 50.2527C13.853 50.3582 13.8055 50.5132 13.7445 50.7109C13.6226 51.1065 13.447 51.6731 13.2321 52.357C12.8022 53.7251 12.2155 55.5614 11.588 57.4359C10.9601 59.3117 10.2932 61.2202 9.70251 62.7347C9.4069 63.4927 9.13322 64.1446 8.89536 64.6418C8.77633 64.8906 8.66933 65.0941 8.57592 65.2499C8.47782 65.4135 8.41161 65.4955 8.37989 65.5255C8.27231 65.6275 8.18339 65.6673 8.11256 65.6836C8.03882 65.7006 7.95173 65.6996 7.83972 65.6724C7.63017 65.6216 7.42265 65.5087 7.15605 65.3637C7.09859 65.3324 7.0384 65.2997 6.97484 65.2657C6.81263 65.1791 6.62654 65.0853 6.43417 65.0219C6.24061 64.9581 6.00803 64.9138 5.76013 64.9579C5.21705 65.0546 4.87636 65.5084 4.64894 66.1341C4.19147 67.3927 4.35414 68.2741 4.73525 68.8575C4.91792 69.1371 5.13498 69.3229 5.30753 69.4393C5.39404 69.4977 5.47072 69.5396 5.52873 69.568C5.55781 69.5822 5.58243 69.5932 5.60155 69.6013C5.61112 69.6053 5.61933 69.6086 5.62607 69.6112L5.63505 69.6147L5.63868 69.616L5.64028 69.6166L5.64103 69.6169C5.64138 69.617 5.64173 69.6172 5.81254 69.1472L5.64173 69.6172L10.2176 71.2804L10.6875 71.4512L10.8583 70.9812L15.2294 58.9554C15.5734 60.8128 15.9279 62.1889 16.3228 63.1924C16.8396 64.5058 17.4651 65.2806 18.3281 65.5943C18.7711 65.7553 19.3019 65.6855 19.8273 65.5256C20.3699 65.3605 20.9935 65.072 21.673 64.6901C22.6731 64.1278 23.8289 63.3432 25.0777 62.3921L20.6607 74.5442Z" fill="#D9A071" stroke="#A47053"/>
<circle cx="35.9214" cy="37.2039" r="3.24581" transform="rotate(19.9749 35.9214 37.2039)" fill="#F2F2F2"/>
<circle cx="23.7192" cy="32.7687" r="3.24581" transform="rotate(19.9749 23.7192 32.7687)" fill="#F2F2F2"/>
<circle cx="35.9214" cy="37.2039" r="1.62291" transform="rotate(19.9749 35.9214 37.2039)" fill="#302D2D"/>
<circle cx="23.7192" cy="32.7687" r="1.62291" transform="rotate(19.9749 23.7192 32.7687)" fill="#302D2D"/>
<path d="M26.7697 33.8775C26.076 31.0352 23.0255 29.9264 20.6686 31.6599C21.2769 29.9864 23.1432 29.1058 24.828 29.7181C26.5127 30.3305 27.3795 32.1997 26.7697 33.8775Z" fill="#A47053"/>
<path d="M24.5521 39.9786C25.2458 42.8209 28.2964 43.9297 30.6532 42.1962C30.045 43.8697 28.1787 44.7503 26.4939 44.1379C24.8091 43.5256 23.9423 41.6564 24.5521 39.9786Z" fill="#A47053"/>
<path d="M38.9719 38.3127C38.2782 35.4704 35.2277 34.3616 32.8708 36.0951C33.4791 34.4216 35.3454 33.5409 37.0302 34.1533C38.7149 34.7657 39.5818 36.6349 38.9719 38.3127Z" fill="#A47053"/>
</svg>
